<svg width="20.000000" height="20.000000" viewBox="0 0 20 20" fill="none" xmlns="http://www.w3.org/2000/svg" xmlns:xlink="http://www.w3.org/1999/xlink">
	<desc>
			Created with Pixso.
	</desc>
	<defs/>
	<rect id="Rectangle" width="20.000000" height="20.000000" fill="#D8D8D8" fill-opacity="0"/>
	<rect id="Rectangle" width="20.000000" height="20.000000" stroke="#979797" stroke-opacity="0" stroke-width="0.000000"/>
	<path id="Path" d="M13.5532 13.815C9.66858 13.815 6.51929 10.9278 6.51929 7.36822C6.51929 6.0253 6.9668 4.78158 7.73145 3.75C4.69037 4.69515 2.5 7.33122 2.5 10.4381C2.5 14.3385 5.94928 17.5 10.2036 17.5C13.5928 17.5 16.4697 15.4932 17.5 12.7045C16.375 13.4048 15.0161 13.815 13.5532 13.815Z" fill="#FFFFFF" fill-opacity="1.000000" fill-rule="evenodd"/>
	<path id="Path" d="M6.51929 7.36822C6.51929 6.0253 6.9668 4.78158 7.73145 3.75C4.69037 4.69515 2.5 7.33122 2.5 10.4381C2.5 14.3385 5.94928 17.5 10.2036 17.5C13.5928 17.5 16.4697 15.4932 17.5 12.7045C16.375 13.4048 15.0161 13.815 13.5532 13.815C9.66858 13.815 6.51929 10.9278 6.51929 7.36822Z" stroke="#111517" stroke-opacity="1.000000" stroke-width="1.250000"/>
</svg>
